# xmcd CD database file
#
# Track frame offsets:
#	150
#	20105
#	35252
#	45550
#	64789
#	75640
#	85810
#	96992
#	113037
#	123265
#	134480
#	146227
#	161202
#	177562
#	192870
#
# Disc length: 2724 seconds
#
# Revision: 0
# Processed by: cddbd v1.5.2PL0 Copyright (c) Steve Scherf et al.
# Submitted via: CDex 1.50
#
DISCID=d40aa20f
DTITLE=Beryl Davis - I'll Be Seeing You
DYEAR=1999
DGENRE=Jazz
TTITLE0=The Nearness Of You
TTITLE1=I Remember You
TTITLE2=The Very Thought Of You
TTITLE3=They Can't Take That Away From Me
TTITLE4=As Time Goes By
TTITLE5=Dream A Little Dream Of Me
TTITLE6=Cabaret
TTITLE7=Chaplin Walked Here
TTITLE8=You Made Me Love You
TTITLE9=Where Or When
TTITLE10=Old Cape Cod
TTITLE11=I Can't Get Started Without You
TTITLE12=Star Eyes
TTITLE13=A Nightingale Sang In Berkeley Square
TTITLE14=I'll Be Seeing You
EXTD=YEAR: 1999
EXTT0=
EXTT1=
EXTT2=
EXTT3=
EXTT4=
EXTT5=
EXTT6=
EXTT7=
EXTT8=
EXTT9=
EXTT10=
EXTT11=
EXTT12=
EXTT13=
EXTT14=
PLAYORDER=
